Coordinates
version=1
nRows=17
nColumns=40
inDegrees=yes

Units are S.I. units (second, meters, Newtons, ...)
If the header above contains a line with 'inDegrees', this indicates whether rotational values are in degrees (yes) or radians (no).

endheader
time	pelvis_tilt	pelvis_list	pelvis_rotation	pelvis_tx	pelvis_ty	pelvis_tz	hip_flexion_r	hip_adduction_r	hip_rotation_r	knee_angle_r	knee_angle_r_beta	ankle_angle_r	subtalar_angle_r	mtp_angle_r	hip_flexion_l	hip_adduction_l	hip_rotation_l	knee_angle_l	knee_angle_l_beta	ankle_angle_l	subtalar_angle_l	mtp_angle_l	lumbar_extension	lumbar_bending	lumbar_rotation	arm_flex_r	arm_add_r	arm_rot_r	elbow_flex_r	pro_sup_r	wrist_flex_r	wrist_dev_r	arm_flex_l	arm_add_l	arm_rot_l	elbow_flex_l	pro_sup_l	wrist_flex_l	wrist_dev_l
      4.20000000	    -31.46495406	      0.31581794	     -2.29006250	     -0.40488164	      0.61406107	     -0.90510306	     92.87561026	    -11.71523316	     -2.96728730	     97.75415278	      1.70613182	     37.45892789	      0.00000000	      0.00000000	     92.34817055	    -20.23353426	     -1.25252584	     96.69099233	      1.68757617	     36.43994596	      0.00000000	      0.00000000	    -30.42970877	    -16.16050334	    -41.55100440	     32.77979216	    -26.23610384	     89.69867784	     82.84275406	      4.11906949	      0.00000000	      0.00000000	    -71.27332702	    -17.73345689	    -16.33584002	    116.58023024	     88.15118316	      0.00000000	      0.00000000
      4.20500000	    -31.43738206	      0.36294909	     -2.29266033	     -0.40484037	      0.61404259	     -0.90514820	     92.87850263	    -11.72627874	     -2.90980829	     97.77529531	      1.70650083	     37.40097089	      0.00000000	      0.00000000	     92.29495701	    -20.23524031	     -1.29997760	     96.71578666	      1.68800892	     36.41890636	      0.00000000	      0.00000000	    -30.53577507	    -16.21413947	    -41.68955218	     32.82665164	    -26.15825249	     89.70036384	     82.85113743	      3.77442031	      0.00000000	      0.00000000	    -71.36205960	    -17.48970210	    -16.48183109	    116.63738393	     88.06664779	      0.00000000	      0.00000000
      4.21000000	    -31.33819587	      0.32385365	     -2.30105491	     -0.40476920	      0.61409069	     -0.90506821	     92.74481116	    -11.72127829	     -2.97838616	     97.78924969	      1.70674438	     37.57765735	      0.00000000	      0.00000000	     92.21162422	    -20.24200517	     -1.23188155	     96.74080808	      1.68844562	     36.50190572	      0.00000000	      0.00000000	    -30.80299594	    -16.20824279	    -41.88848273	     32.88521109	    -26.02698403	     89.70404735	     82.52373676	      6.42831905	      0.00000000	      0.00000000	    -71.57855712	    -17.03832537	    -16.80912248	    116.71617409	     88.03795031	      0.00000000	      0.00000000
      4.21500000	    -31.46229330	      0.32463027	     -2.33523115	     -0.40480763	      0.61391234	     -0.90508767	     92.88913984	    -11.68204677	     -2.97018958	     97.78110548	      1.70660224	     37.43854863	      0.00000000	      0.00000000	     92.35105487	    -20.28661454	     -1.25441510	     96.73903098	      1.68841461	     36.45459728	      0.00000000	      0.00000000	    -30.45095829	    -16.18936083	    -41.54228741	     32.79278534	    -26.21255778	     89.69918357	     82.83300826	      4.01626913	      0.00000000	      0.00000000	    -71.29730658	    -17.70905923	    -16.32409842	    116.57905227	     88.14991634	      0.00000000	      0.00000000
      4.22000000	    -31.44996148	      0.31709518	     -2.34023811	     -0.40481801	      0.61386846	     -0.90507032	     92.87802699	    -11.67319784	     -2.96969241	     97.78549400	      1.70667883	     37.45402384	      0.00000000	      0.00000000	     92.34316999	    -20.30030446	     -1.24691929	     96.75069950	      1.68861826	     36.48442583	      0.00000000	      0.00000000	    -30.55906789	    -16.18920579	    -41.66691623	     32.83109175	    -26.15187442	     89.70129524	     82.84639451	      3.79514024	      0.00000000	      0.00000000	    -71.38847512	    -17.45621629	    -16.48909797	    116.63509966	     88.05907802	      0.00000000	      0.00000000
      4.22500000	    -31.45276017	      0.31458543	     -2.38639206	     -0.40477934	      0.61381180	     -0.90497008	     92.88141102	    -11.61258709	     -2.96173365	     97.78524504	      1.70667449	     37.47087469	      0.00000000	      0.00000000	     92.35180712	    -20.36256377	     -1.23774234	     96.78764738	      1.68926312	     36.48273899	      0.00000000	      0.00000000	    -30.51326985	    -16.21628414	    -41.58199544	     32.81274825	    -26.17492696	     89.70099317	     82.82424567	      3.88792246	      0.00000000	      0.00000000	    -71.35615692	    -17.55980081	    -16.42625189	    116.63604971	     88.07141532	      0.00000000	      0.00000000
      4.23000000	    -31.44826368	      0.35867712	     -2.37383918	     -0.40477624	      0.61381248	     -0.90507955	     92.90461523	    -11.67143341	     -2.96653194	     97.79749542	      1.70688830	     37.43224499	      0.00000000	      0.00000000	     92.32397497	    -20.31866258	     -1.28151479	     96.76191779	      1.68881406	     36.47189612	      0.00000000	      0.00000000	    -30.56004293	    -16.24870622	    -41.63642316	     32.81437764	    -26.15365115	     89.70115069	     82.84689347	      3.77434143	      0.00000000	      0.00000000	    -71.37378690	    -17.53951411	    -16.44514555	    116.62464341	     88.07760739	      0.00000000	      0.00000000
      4.23500000	    -31.39921102	      0.20966149	     -2.43080909	     -0.40468743	      0.61374052	     -0.90488251	     92.75861374	    -11.55571158	     -3.10410719	     97.76933714	      1.70639684	     37.77781718	      0.00000000	      0.00000000	     92.35130323	    -20.43959050	     -1.14094049	     96.83679424	      1.69012090	     36.70182243	      0.00000000	      0.00000000	    -30.64575496	    -16.13650666	    -41.63738816	     32.86816324	    -26.08191432	     89.70465162	     82.58531128	      5.58848070	      0.00000000	      0.00000000	    -71.39723718	    -17.27702813	    -16.57187405	    116.52615093	     88.00201575	      0.00000000	      0.00000000
      4.24000000	    -31.48041981	      0.32198416	     -2.41020707	     -0.40482850	      0.61359673	     -0.90498821	     92.94449735	    -11.60783014	     -2.96900001	     97.81938099	      1.70727027	     37.41527774	      0.00000000	      0.00000000	     92.41097599	    -20.36994859	     -1.22037213	     96.80026461	      1.68948333	     36.54506912	      0.00000000	      0.00000000	    -30.53590035	    -16.23815725	    -41.61862084	     32.81836723	    -26.15166024	     89.70213869	     82.85027057	      3.79645203	      0.00000000	      0.00000000	    -71.39985882	    -17.48400020	    -16.45873407	    116.62833139	     88.05367915	      0.00000000	      0.00000000
      4.24500000	    -31.58216270	      0.18248934	     -2.43330297	     -0.40486914	      0.61340079	     -0.90494210	     92.95973410	    -11.56841210	     -3.15565835	     97.76454738	      1.70631324	     37.77308294	      0.00000000	      0.00000000	     92.58291295	    -20.39412445	     -1.03804886	     96.82052057	      1.68983687	     36.78875960	      0.00000000	      0.00000000	    -30.28900581	    -16.05817136	    -41.37516006	     32.78510116	    -26.28192556	     89.70661742	     82.71999736	      6.57410893	      0.00000000	      0.00000000	    -71.16311517	    -17.76139107	    -16.23583443	    116.38528393	     87.75346055	      0.00000000	      0.00000000
      4.25000000	    -31.42711697	      0.25386189	     -2.43052262	     -0.40475217	      0.61355279	     -0.90487892	     92.83131999	    -11.56421369	     -3.05349717	     97.81182949	      1.70713847	     37.75632909	      0.00000000	      0.00000000	     92.37675405	    -20.41672394	     -1.15084505	     96.83280096	      1.69005120	     36.70343268	      0.00000000	      0.00000000	    -30.65476626	    -16.20636266	    -41.67683940	     32.83285011	    -26.05031043	     89.70058227	     82.27661249	      8.41977473	      0.00000000	      0.00000000	    -71.50059535	    -17.35585411	    -16.58781850	    116.68083975	     88.16036350	      0.00000000	      0.00000000
      4.25500000	    -31.49470130	      0.28578683	     -2.44791914	     -0.40483228	      0.61342512	     -0.90489987	     92.95973131	    -11.57166228	     -3.02543341	     97.82349519	      1.70734208	     37.46865534	      0.00000000	      0.00000000	     92.46240444	    -20.42533518	     -1.17792819	     96.83997096	      1.69017634	     36.51719725	      0.00000000	      0.00000000	    -30.56057151	    -16.22925273	    -41.63359384	     32.82149226	    -26.13009939	     89.70293866	     82.85629780	      3.79747104	      0.00000000	      0.00000000	    -71.47369914	    -17.44750676	    -16.48660672	    116.66677103	     88.03398396	      0.00000000	      0.00000000
      4.26000000	    -31.43947895	      0.25849775	     -2.44329199	     -0.40474986	      0.61345739	     -0.90488390	     92.86592835	    -11.60108956	     -3.09535781	     97.83470590	      1.70753774	     37.62281738	      0.00000000	      0.00000000	     92.40830550	    -20.43360584	     -1.14892452	     96.85876878	      1.69050442	     36.59801683	      0.00000000	      0.00000000	    -30.71823160	    -16.21369608	    -41.75863817	     32.84241917	    -26.03824808	     89.70400772	     82.52897213	      6.60446195	      0.00000000	      0.00000000	    -71.56713183	    -17.17897209	    -16.68669945	    116.71485583	     88.11477294	      0.00000000	      0.00000000
      4.26500000	    -31.52113680	      0.29992532	     -2.49647362	     -0.40480474	      0.61331767	     -0.90481927	     92.98951729	    -11.52068972	     -3.00799105	     97.83048467	      1.70746407	     37.43878701	      0.00000000	      0.00000000	     92.49150890	    -20.49835882	     -1.20032943	     96.87361854	      1.69076360	     36.49503608	      0.00000000	      0.00000000	    -30.53804701	    -16.26606079	    -41.60212382	     32.78456446	    -26.09223619	     89.70247218	     82.79021630	      3.81192552	      0.00000000	      0.00000000	    -71.47084234	    -17.48512506	    -16.45545086	    116.63384259	     88.07672705	      0.00000000	      0.00000000
      4.27000000	    -31.49021108	      0.29399909	     -2.49990037	     -0.40475292	      0.61332642	     -0.90478330	     92.94905752	    -11.52063041	     -3.01850140	     97.84202604	      1.70766550	     37.51182226	      0.00000000	      0.00000000	     92.45760829	    -20.50781916	     -1.19454424	     96.87895729	      1.69085678	     36.53394775	      0.00000000	      0.00000000	    -30.60482511	    -16.27339622	    -41.65165075	     32.80064265	    -26.04866738	     89.70160878	     82.61556379	      5.32531082	      0.00000000	      0.00000000	    -71.52217696	    -17.41222558	    -16.53809477	    116.66445220	     88.23268728	      0.00000000	      0.00000000
      4.27500000	    -31.53906797	      0.34885521	     -2.51179168	     -0.40487075	      0.61323350	     -0.90479912	     93.04931689	    -11.50197649	     -2.93474396	     97.84876664	      1.70778315	     37.31857383	      0.00000000	      0.00000000	     92.49702792	    -20.51694038	     -1.26794550	     96.87082823	      1.69071490	     36.47268081	      0.00000000	      0.00000000	    -30.67155616	    -16.34016159	    -41.83975244	     32.84150192	    -25.95916618	     89.70475958	     82.67509723	      4.42846784	      0.00000000	      0.00000000	    -71.62677429	    -17.07444502	    -16.73042681	    116.66174057	     88.11937375	      0.00000000	      0.00000000
      4.28000000	    -31.58109187	      0.27847582	     -2.51451488	     -0.40486790	      0.61314322	     -0.90478553	     93.06182843	    -11.50493848	     -3.03890924	     97.84663416	      1.70774593	     37.39089059	      0.00000000	      0.00000000	     92.58643123	    -20.51650840	     -1.16397113	     96.88802299	      1.69101501	     36.45774940	      0.00000000	      0.00000000	    -30.51541270	    -16.25714443	    -41.64818764	     32.80558068	    -26.08464539	     89.70175219	     82.80443486	      3.90512493	      0.00000000	      0.00000000	    -71.51155640	    -17.42355516	    -16.44433061	    116.60487939	     88.10779785	      0.00000000	      0.00000000
